<?xml version="1.0" encoding="UTF-8" standalone="no"?>
<!-- Created with Inkscape (http://www.inkscape.org/) -->

<svg
   width="208.52957mm"
   height="214.66281mm"
   viewBox="0 0 208.52957 214.66281"
   version="1.1"
   id="svg11782"
   inkscape:version="1.1 (c68e22c387, 2021-05-23)"
   sodipodi:docname="Target2.svg"
   xmlns:inkscape="http://www.inkscape.org/namespaces/inkscape"
   xmlns:sodipodi="http://sodipodi.sourceforge.net/DTD/sodipodi-0.dtd"
   xmlns="http://www.w3.org/2000/svg"
   xmlns:svg="http://www.w3.org/2000/svg">
  <sodipodi:namedview
     id="namedview11784"
     pagecolor="#ffffff"
     bordercolor="#666666"
     borderopacity="1.0"
     inkscape:pageshadow="2"
     inkscape:pageopacity="0.0"
     inkscape:pagecheckerboard="0"
     inkscape:document-units="mm"
     showgrid="false"
     inkscape:zoom="0.56081512"
     inkscape:cx="608.93508"
     inkscape:cy="632.11562"
     inkscape:window-width="1920"
     inkscape:window-height="1017"
     inkscape:window-x="-8"
     inkscape:window-y="-8"
     inkscape:window-maximized="1"
     inkscape:current-layer="layer1" />
  <defs
     id="defs11779" />
  <g
     inkscape:label="Ebene 1"
     inkscape:groupmode="layer"
     id="layer1"
     transform="translate(-0.6821073,-0.94793168)">
    <g
       id="g46"
       transform="matrix(2.8260556,0,0,2.8260556,-204.78088,-144.71614)">
      <ellipse
         style="fill:#d40000;stroke-width:0.264583"
         id="path11876"
         cx="109.5972"
         cy="89.522469"
         rx="36.894104"
         ry="37.979225" />
      <ellipse
         style="fill:#d40000;stroke-width:0.264583"
         id="path11966"
         ry="19.939095"
         rx="17.226292"
         cy="89.929382"
         cx="113.53076" />
      <path
         style="fill:#f9f9f9"
         id="path12009"
         sodipodi:type="arc"
         sodipodi:cx="110.13976"
         sodipodi:cy="89.793747"
         sodipodi:rx="30.925941"
         sodipodi:ry="32.553623"
         sodipodi:start="0"
         sodipodi:end="6.2384351"
         sodipodi:open="true"
         sodipodi:arc-type="arc"
         d="M 141.0657,89.793747 A 30.925941,32.553623 0 0 1 110.48574,122.34533 30.925941,32.553623 0 0 1 79.221563,90.522077 30.925941,32.553623 0 0 1 109.102,57.258457 30.925941,32.553623 0 0 1 141.03474,88.337452" />
      <path
         style="fill:#d40000"
         id="path12011"
         sodipodi:type="arc"
         sodipodi:cx="108.91898"
         sodipodi:cy="89.658104"
         sodipodi:rx="24.279577"
         sodipodi:ry="28.077501"
         sodipodi:start="0"
         sodipodi:end="6.2384351"
         sodipodi:open="true"
         sodipodi:arc-type="arc"
         d="M 133.19856,89.658104 A 24.279577,28.077501 0 0 1 109.19061,117.73385 24.279577,28.077501 0 0 1 84.645484,90.286289 24.279577,28.077501 0 0 1 108.10425,61.596415 a 24.279577,28.077501 0 0 1 25.07,26.805634" />
      <path
         style="fill:#d40000"
         id="path12040"
         sodipodi:type="arc"
         sodipodi:cx="112.03872"
         sodipodi:cy="89.115547"
         sodipodi:rx="2.7128019"
         sodipodi:ry="2.3058815"
         sodipodi:start="0"
         sodipodi:end="6.2384351"
         sodipodi:open="true"
         sodipodi:arc-type="arc"
         d="m 114.75152,89.115547 a 2.7128019,2.3058815 0 0 1 -2.68245,2.305737 2.7128019,2.3058815 0 0 1 -2.74247,-2.254147 2.7128019,2.3058815 0 0 1 2.62109,-2.356173 2.7128019,2.3058815 0 0 1 2.80112,2.201429" />
      <path
         style="fill:#f9f9f9"
         id="path12085"
         sodipodi:type="arc"
         sodipodi:cx="108.78199"
         sodipodi:cy="88.182304"
         sodipodi:rx="19.667814"
         sodipodi:ry="21.431135"
         sodipodi:start="0"
         sodipodi:end="6.2384351"
         sodipodi:arc-type="arc"
         d="M 128.4498,88.182304 A 19.667814,21.431135 0 0 1 109.00202,109.6121 19.667814,21.431135 0 0 1 89.119099,88.661788 19.667814,21.431135 0 0 1 108.12201,66.763239 a 19.667814,21.431135 0 0 1 20.3081,20.460338"
         sodipodi:open="true" />
      <path
         style="fill:#f9f9f9"
         id="path12093"
         sodipodi:type="arc"
         sodipodi:cx="113.39376"
         sodipodi:cy="91.437668"
         sodipodi:rx="1.355042"
         sodipodi:ry="2.4252777"
         sodipodi:start="0"
         sodipodi:end="6.2532355"
         sodipodi:arc-type="slice"
         d="m 114.7488,91.437668 a 1.355042,2.4252777 0 0 1 -1.34489,2.42521 1.355042,2.4252777 0 0 1 -1.36504,-2.388893 1.355042,2.4252777 0 0 1 1.32446,-2.460983 1.355042,2.4252777 0 0 1 1.38486,2.35204 l -1.35443,0.07263 z" />
      <path
         style="fill:#f9f9f9"
         id="path12095"
         sodipodi:type="arc"
         sodipodi:cx="111.63044"
         sodipodi:cy="87.775391"
         sodipodi:rx="3.1183634"
         sodipodi:ry="1.2370051"
         sodipodi:start="0"
         sodipodi:end="6.2384351"
         sodipodi:open="true"
         sodipodi:arc-type="arc"
         d="m 114.7488,87.775391 a 3.1183634,1.2370051 0 0 1 -3.08347,1.236927 3.1183634,1.2370051 0 0 1 -3.15247,-1.209252 3.1183634,1.2370051 0 0 1 3.01294,-1.263984 3.1183634,1.2370051 0 0 1 3.21988,1.180971" />
      <path
         style="fill:#d40000"
         id="path12143"
         sodipodi:type="arc"
         sodipodi:cx="108.51208"
         sodipodi:cy="88.43734"
         sodipodi:rx="14.920411"
         sodipodi:ry="14.92041"
         sodipodi:start="0"
         sodipodi:end="6.2384351"
         sodipodi:open="true"
         sodipodi:arc-type="arc"
         d="M 123.43249,88.43734 A 14.920411,14.92041 0 0 1 108.679,103.35682 14.920411,14.92041 0 0 1 93.595401,88.771158 14.920411,14.92041 0 0 1 108.0114,73.525332 14.920411,14.92041 0 0 1 123.41755,87.769871" />
      <path
         style="fill:#f2f2f2"
         id="path12189"
         sodipodi:type="arc"
         sodipodi:cx="108.78336"
         sodipodi:cy="88.301704"
         sodipodi:rx="11.393768"
         sodipodi:ry="10.715568"
         sodipodi:start="0"
         sodipodi:end="6.2384351"
         sodipodi:open="true"
         sodipodi:arc-type="arc"
         d="M 120.17713,88.301704 A 11.393768,10.715568 0 0 1 108.91083,99.016601 11.393768,10.715568 0 0 1 97.392447,88.541446 11.393768,10.715568 0 0 1 108.40103,77.592172 11.393768,10.715568 0 0 1 120.16573,87.822341" />
      <path
         style="fill:#d40000"
         id="path12213"
         sodipodi:type="arc"
         sodipodi:cx="108.91832"
         sodipodi:cy="87.631622"
         sodipodi:rx="4.4754424"
         sodipodi:ry="3.8060434"
         sodipodi:start="0"
         sodipodi:end="6.2384351"
         sodipodi:open="true"
         sodipodi:arc-type="arc"
         d="m 113.39376,87.631622 a 4.4754424,3.8060434 0 0 1 -4.42537,3.805806 4.4754424,3.8060434 0 0 1 -4.52439,-3.720652 4.4754424,3.8060434 0 0 1 4.32414,-3.889054 4.4754424,3.8060434 0 0 1 4.62114,3.633636" />
      <path
         style="fill:#f9f9f9;stroke-width:0.264583"
         id="path12283"
         d="m 93.134544,114.88152 c 1.698172,0.44758 3.400983,0.8767 5.120076,1.23645 1.502228,0.32814 2.88992,1.02907 4.32204,1.57326 0.99589,0.39391 2.05052,0.56488 3.11229,0.64448 0.71542,0.0428 1.43251,0.0332 2.1488,0.0298 0.72812,-0.0101 1.45634,-0.009 2.18452,-0.009 0.62552,0.004 1.24683,0.0259 1.86519,-0.0777 0.70738,-0.14286 1.37753,-0.41264 2.03608,-0.70045 0.50248,-0.22839 0.98161,-0.5009 1.47573,-0.74656 0.48817,-0.19411 0.97191,-0.38858 1.43875,-0.63014 1.67173,-0.8686 3.26174,-1.82664 4.90167,-2.78361 0.58145,-0.34064 1.10067,-0.7659 1.67704,-1.11734 1.16617,-0.73021 2.93179,-1.75305 -2.62893,1.51431 -0.57682,0.33893 0.54757,-0.28139 0.65545,-0.33532 2.08895,-0.62177 3.214,-1.72782 4.68171,-2.91504 0.27676,-0.21122 0.62342,-0.38095 0.85076,-0.65183 0.1681,-0.24932 0.0812,-0.14201 0.25229,-0.32853 -5.10219,2.36192 -2.71852,0.86691 -4.11654,3.07096 -0.28462,0.32557 -0.52993,0.68978 -0.87529,0.95905 -0.18971,0.14793 -0.40163,0.26541 -0.59437,0.40938 -0.46467,0.38861 -1.01287,0.64811 -1.51978,0.97514 10.56436,-6.14781 -8.49934,4.95442 1.90609,-1.08375 -0.56043,0.3168 -1.16638,0.52859 -1.77368,0.7338 -0.79054,0.18007 -1.51629,0.53521 -2.26546,0.83001 -0.0921,0.0302 -0.18414,0.0604 -0.2762,0.0906 0,0 -3.13791,2.41464 -3.13791,2.41464 v 0 c 0.0984,-0.0236 0.19681,-0.0473 0.29522,-0.0709 0.77145,-0.25123 1.46456,-0.6954 2.26905,-0.8511 0.61745,-0.18371 1.22666,-0.38232 1.80859,-0.66024 1.216,-0.70167 2.43293,-1.40173 3.64801,-2.105 3.35642,-1.94265 -10.47899,5.99024 1.22239,-0.73065 0.5155,-0.3083 1.03061,-0.61911 1.49546,-1.00207 0.56109,-0.41954 1.04936,-0.90853 1.41544,-1.51138 0.20492,-0.357 0.34797,-0.69124 0.40774,-1.10176 0.23277,-1.59865 -0.90855,0.0997 -3.57265,1.1795 -0.30954,0.37133 -0.74432,0.60472 -1.11286,0.91134 -0.22159,0.18037 -0.43237,0.38268 -0.66538,0.54828 -0.0704,0.05 -0.29477,0.18032 -0.21975,0.13746 3.08545,-1.76335 4.20594,-2.49789 2.99094,-1.7066 -0.24705,0.0873 -0.44389,0.19751 -0.67053,0.32634 -1.39252,0.79156 -2.82401,1.50645 -4.15802,2.3898 -0.55375,0.37663 -1.09411,0.77365 -1.67362,1.11037 1.02849,-0.59187 2.05264,-1.19136 3.08549,-1.7756 0.0853,-0.0483 -0.155,0.12189 -0.24196,0.16713 -0.31758,0.16517 -0.67769,0.26281 -0.97802,0.46855 -0.44347,0.27958 -0.91243,0.51097 -1.41689,0.65887 -0.5153,0.21561 -0.9902,0.49903 -1.48659,0.74862 -0.63211,0.32223 -1.29779,0.59209 -1.98419,0.77277 -0.59777,0.16576 -1.19299,0.15881 -1.81088,0.14317 -0.72864,0.003 -1.45729,0.008 -2.18594,0.007 -0.7148,0.007 -1.42986,0.0179 -2.14458,-2.6e-4 -1.04608,-0.0455 -2.09125,-0.16576 -3.08222,-0.52563 -0.77871,-0.27616 -1.54538,-0.57086 -2.30395,-0.89917 -0.45403,-0.19651 -0.93358,-0.44117 -1.41323,-0.58263 -0.21011,-0.062 -0.42799,-0.0937 -0.64198,-0.1405 -1.709215,-0.31537 -3.405977,-0.70364 -5.059594,-1.244 0,0 -3.255822,2.23554 -3.255822,2.23554 z" />
      <path
         style="fill:#f9f9f9;stroke-width:0.264583"
         id="path12287"
         d="m 88.742508,111.86074 c 0.747403,0.0766 1.457791,0.27298 2.096151,0.67125 0.377444,0.2437 0.749432,0.49145 1.103416,0.76832 0.283609,0.26256 0.564936,0.51882 0.878454,0.7451 0.333814,0.25089 0.674899,0.49085 1.014761,0.73343 0.398444,0.27131 0.789504,0.55728 1.205971,0.80046 0.85425,0.32799 1.741522,0.57062 2.608194,0.87099 0.905385,0.30533 1.823339,0.56895 2.735455,0.85311 0.55376,0.11076 1.10051,0.25231 1.65212,0.37344 0.51698,0.10495 1.0452,0.12273 1.57086,0.13523 0.54125,0.008 1.08259,0.006 1.62388,0.005 0.54278,-0.001 1.08557,-0.002 1.62835,-0.002 0.58439,7.9e-4 1.16876,-0.002 1.75315,-0.002 0.62712,0.0434 1.24142,-0.0601 1.85953,-0.14401 0.53441,-0.0887 1.05194,-0.24493 1.58847,-0.32451 0.54415,-0.0662 1.09153,-0.0509 1.63414,-0.12927 0.57223,-0.0877 1.14693,-0.13064 1.70567,-0.28741 1.67364,-0.73334 3.22065,-1.75319 4.79213,-2.66109 1.2274,-0.93008 3.89221,-2.37829 -1.95991,1.02594 1.78519,-0.79818 3.24566,-1.78089 4.73282,-2.91885 0.45285,-0.30965 0.92205,-0.61349 1.34335,-0.96839 0.26732,-0.25487 0.6223,-0.40381 0.88813,-0.65784 0.22471,-0.25916 0.10701,-0.14082 0.35073,-0.35736 0.4127,-0.33512 0.77762,-0.72722 1.19932,-1.04988 0.3577,-0.34752 0.75717,-0.645 1.07862,-1.02921 0.38485,-0.46098 0.76112,-0.92512 1.13283,-1.39702 0.41387,-0.4526 0.74254,-0.97846 1.17896,-1.40882 0.22099,-0.37502 0.3851,-0.55604 0.73053,-0.80906 0,0 -3.68076,1.48664 -3.68076,1.48664 v 0 c -0.27276,0.25846 -0.44917,0.58337 -0.70538,0.85746 -0.3876,0.47615 -0.77189,0.95491 -1.16083,1.42995 -0.37232,0.46752 -0.7498,0.9327 -1.15683,1.37061 -0.35741,0.33579 -0.72148,0.66264 -1.09158,0.98451 -0.39356,0.3624 -0.80716,0.70097 -1.19624,1.06846 -0.38156,0.36606 -0.83348,0.64689 -1.24295,0.98064 -0.45039,0.32197 -0.89889,0.64626 -1.35147,0.96489 -1.23876,0.91653 -3.72766,2.49725 2.03689,-1.02561 -1.65166,0.94713 -3.2746,1.81068 -4.82402,2.87838 5.86729,-3.37366 3.40312,-1.88744 2.01938,-1.22474 -0.50024,0.30091 -1.08964,0.28727 -1.65272,0.37297 -0.54019,0.087 -1.0723,0.13137 -1.62147,0.13591 -0.54461,0.05 -1.07852,0.14941 -1.59706,0.32826 -0.61109,0.0698 -1.21108,0.22155 -1.82925,0.18278 -0.58274,-7e-5 -1.16547,-0.003 -1.74821,-0.002 -0.54289,1.4e-4 -1.08578,2.6e-4 -1.62867,0.001 -0.53967,10e-4 -1.07936,0.003 -1.61903,5.3e-4 -0.51015,-0.005 -1.02239,-0.008 -1.52859,-0.0794 -0.55163,-0.0944 -1.08099,-0.27811 -1.63893,-0.33868 -0.92733,-0.25334 -1.84852,-0.53026 -2.76927,-0.80654 -0.83779,-0.29116 -1.663436,-0.62615 -2.519487,-0.85633 -0.419786,-0.20034 -0.776849,-0.50508 -1.171851,-0.74874 -0.325945,-0.25764 -0.683926,-0.47743 -1.009898,-0.73435 -0.301726,-0.24046 -0.621025,-0.45158 -0.879856,-0.74556 -0.370393,-0.27028 -0.725697,-0.55685 -1.127784,-0.78231 -0.66204,-0.46082 -1.410465,-0.68993 -2.201087,-0.82702 0,0 -3.229129,2.29194 -3.229129,2.29194 z" />
      <path
         style="fill:#f9f9f9;stroke-width:0.264583"
         id="path12289"
         d="m 126.5301,113.93731 c -1.12829,0.41099 -2.18273,1.01132 -3.34432,1.3274 -0.74256,0.14952 -0.65148,-0.48097 -0.54034,-1.00551 0.23125,-0.67635 0.0622,-1.12031 -0.72232,-0.9733 0,0 -3.12197,2.44906 -3.12197,2.44906 v 0 c 0.0626,-0.0407 0.1228,-0.0855 0.18788,-0.12223 0.0538,-0.0303 0.12664,-0.0325 0.16798,-0.0784 0.0336,-0.0373 0.0129,-0.10128 0.0345,-0.14654 0.006,-0.0116 -0.0976,0.62948 -0.0947,0.61955 -0.0402,0.54698 -0.0308,1.37974 0.60387,1.62322 0.10904,0.0418 0.23314,0.0142 0.34971,0.0212 1.19214,-0.22419 2.24068,-0.86172 3.36842,-1.28391 0,0 3.1112,-2.43059 3.1112,-2.43059 z" />
      <path
         style="fill:#f9f9f9;stroke-width:0.264583"
         id="path12291"
         d="m 128.97683,107.51337 c 0.0854,-0.11701 0.16604,-0.2377 0.25629,-0.35104 0.41178,-0.51713 0.20664,-0.18953 0.59362,-0.72319 0.2492,-0.34366 0.44776,-0.71742 0.6907,-1.06557 0.371,-0.53085 0.58629,-1.13788 0.83973,-1.72624 0.10191,-0.55892 0.44046,-0.95725 0.73902,-1.41522 0.23338,-0.47151 0.57337,-0.87937 0.84559,-1.32814 0.23277,-0.46941 0.5412,-0.88893 0.72929,-1.381702 0.25943,-0.432141 0.33223,-0.938675 0.62873,-1.352918 0.22617,-0.419774 0.38451,-0.883351 0.50734,-1.344641 0.10354,-0.55353 0.25057,-1.086797 0.32626,-1.647079 0.12296,-0.62294 0.36493,-1.208458 0.50611,-1.826834 0.0866,-0.61414 0.22415,-1.21843 0.31157,-1.832748 0.0505,-0.566711 0.0825,-1.123034 0.19069,-1.680548 0.11864,-0.609931 0.14139,-1.23249 0.16349,-1.851819 0.0169,-0.583737 0.0168,-1.167776 0.0169,-1.7517 -2.6e-4,-0.54441 -0.001,-1.088819 -0.001,-1.633228 -0.001,-0.650145 -0.006,-1.300213 -0.005,-1.950374 0.002,-0.612743 0.003,-1.225484 0.004,-1.838227 5.3e-4,-0.546052 7.9e-4,-1.092105 7.9e-4,-1.638157 -0.003,-0.606869 -0.003,-1.213739 -0.002,-1.820616 0,0 -3.52697,1.797079 -3.52697,1.797079 v 0 c 7.9e-4,0.607573 5.3e-4,1.215133 -0.002,1.822698 3e-5,0.545817 6e-5,1.091634 8e-4,1.637451 7.9e-4,0.611296 0.002,1.222592 0.004,1.833885 0.001,0.65192 -0.004,1.303756 -0.005,1.95566 5.3e-4,0.54419 0.001,1.088379 0.002,1.632569 7e-5,0.578459 7.9e-4,1.157087 -0.019,1.735286 -0.0263,0.604758 -0.0679,1.209654 -0.19508,1.803085 -0.10114,0.559551 -0.0914,1.128448 -0.17875,1.690359 -0.0962,0.602732 -0.21783,1.201513 -0.32977,1.80126 -0.16398,0.618807 -0.39375,1.220539 -0.48724,1.856967 -0.0929,0.539531 -0.23929,1.067763 -0.35841,1.601679 -0.14581,0.435846 -0.30222,0.871855 -0.54939,1.262185 -0.21456,0.459428 -0.3717,0.941828 -0.60697,1.391828 -0.22664,0.45391 -0.50563,0.87948 -0.75299,1.32217 -0.2968,0.43181 -0.57923,0.87228 -0.84843,1.32183 -0.31857,0.46187 -0.53609,0.9502 -0.70545,1.48525 -0.23222,0.57655 -0.50428,1.13608 -0.85786,1.64962 -0.47506,0.73862 -0.98541,1.44582 -1.57167,2.10225 0,0 3.646,-1.54312 3.646,-1.54312 z" />
      <path
         style="fill:#f9f9f9;stroke-width:0.264583"
         id="path12293"
         d="m 120.7852,113.73051 c -0.55539,0.32819 -1.00586,0.78959 -1.48808,1.21019 0,0 3.64845,-1.48337 3.64845,-1.48337 v 0 c 0.48091,-0.42419 0.9687,-0.84093 1.52989,-1.15822 0,0 -3.69026,1.4314 -3.69026,1.4314 z" />
      <path
         style="fill:#f9f9f9;stroke-width:0.264583"
         id="path12295"
         d="m 86.023452,107.92561 c 0.483854,0.49114 0.96135,0.98936 1.427316,1.49759 0.323495,0.3103 0.627073,0.63874 0.928653,0.97017 0.272785,0.30507 0.571883,0.58392 0.88402,0.8479 0.280128,0.23263 0.574059,0.44506 0.875107,0.64945 0.350943,0.23364 0.703643,0.46366 1.043509,0.71324 0.282905,0.22928 0.61374,0.38266 0.893148,0.61517 0.320064,0.23433 0.667221,0.42837 0.998355,0.64684 0.525688,0.33894 1.070737,0.64693 1.626341,0.93377 0.807569,0.39701 1.628563,0.76115 2.479868,1.05303 0.516207,0.20945 1.035124,0.40625 1.571125,0.55897 0.774263,0.22952 1.549756,0.44037 2.336546,0.62426 0.93814,0.23787 1.8867,0.42657 2.84588,0.55414 0.83159,0.12001 1.6645,0.23006 2.49672,0.34563 0.94114,0.14025 1.89716,0.11219 2.84612,0.12517 0.82299,0.002 1.64586,0.0259 2.46885,0.0226 0.59058,-0.004 1.18114,1.3e-4 1.77171,0.004 0.43988,0.004 0.87979,10e-4 1.31969,-5.3e-4 0.58431,-0.003 1.15448,-0.0927 1.71415,-0.25423 1.77852,-0.58258 3.21397,-1.63489 4.87262,-2.59393 0.31396,-0.24225 0.64125,-0.45386 0.97884,-0.66234 0.26575,-0.20963 0.1303,-0.11124 0.4059,-0.29582 0,0 -3.6718,1.44338 -3.6718,1.44338 v 0 c -0.2692,0.1912 -0.13157,0.098 -0.41307,0.27929 -0.33499,0.2114 -0.6439,0.45991 -0.98728,0.65871 1.06617,-0.61357 2.13289,-1.2262 3.19853,-1.8407 0.066,-0.038 -0.13397,0.0726 -0.19954,0.11135 -0.22193,0.13116 -0.21812,0.15292 -0.46544,0.25685 -0.2042,0.0858 -0.42209,0.13659 -0.62224,0.2332 -0.52186,0.21038 -1.05733,0.30603 -1.61819,0.34476 -0.43962,-0.002 -0.87925,-0.004 -1.31886,-2.5e-4 -0.59585,0.004 -1.1917,0.009 -1.78757,0.007 -0.83709,-0.001 -1.67412,0.0237 -2.51127,0.0136 -0.92896,-0.006 -1.86066,-0.009 -2.78501,-0.11252 -0.83962,-0.0991 -1.67608,-0.22287 -2.514,-0.33514 -0.95387,-0.11085 -1.89977,-0.28697 -2.8345,-0.50683 -0.76615,-0.19722 -1.53207,-0.39344 -2.27765,-0.66011 -0.54311,-0.12295 -1.06668,-0.31226 -1.58386,-0.51731 -0.841811,-0.26915 -1.669607,-0.57226 -2.438844,-1.01573 -0.551354,-0.25767 -1.065463,-0.57697 -1.578618,-0.90203 -0.316391,-0.21579 -0.635944,-0.4253 -0.961556,-0.62645 -0.08553,-0.0684 -0.163118,-0.14657 -0.250897,-0.21203 -0.210695,-0.15711 -0.479948,-0.22376 -0.669853,-0.41426 -0.345776,-0.24307 -0.679072,-0.50497 -1.043781,-0.71989 -0.285663,-0.20428 -0.572606,-0.40584 -0.850382,-0.61992 -0.298616,-0.25576 -0.605181,-0.50382 -0.866246,-0.79928 -0.303098,-0.33429 -0.593471,-0.68144 -0.941001,-0.97155 -0.482065,-0.49659 -0.991843,-0.96858 -1.41842,-1.51633 0,0 -3.37312,2.06705 -3.37312,2.06705 z" />
      <circle
         id="path12330"
         style="fill:#ff0000;stroke:#000000;stroke-width:0.264583"
         cx="133.44054"
         cy="101.5816"
         r="0.022217685" />
      <path
         style="fill:#d40000;stroke-width:0.264583"
         id="path12369"
         d="m 125.71215,76.083834 c 0.49052,0.457139 0.86181,1.017555 1.2698,1.544608 0.25061,0.342633 0.50917,0.680098 0.74723,1.031603 0.16399,0.313811 0.35432,0.615741 0.49948,0.938913 0.11407,0.282832 0.20169,0.56733 0.2446,0.869567 0.11414,0.365188 0.12176,0.751541 0.21158,1.120542 0.075,0.326691 0.1657,0.64921 0.23475,0.977315 0.0516,0.388239 0.14523,0.768104 0.20041,1.156007 0.0448,0.347961 0.0506,0.699071 0.0542,1.049366 -0.0197,0.391248 0.0652,0.773703 0.1143,1.159701 0.0155,0.388771 0.0894,0.768096 0.1432,1.152475 0.054,0.396533 0.0658,0.796636 0.0759,1.196133 0.0713,0.42232 0.12078,0.846635 0.1487,1.273905 0.0208,0.40023 0.0203,0.801124 0.0199,1.201764 -5.3e-4,0.406961 0.004,0.813819 0.003,1.220799 -0.001,0.508846 0.008,1.017402 0.005,1.526325 -0.004,0.422579 -0.007,0.845153 -0.009,1.267743 0.0217,0.425905 0.002,0.843698 -0.0541,1.265015 -0.0399,0.437545 -0.14765,0.863259 -0.21357,1.297017 -0.12928,0.449858 -0.30389,0.884357 -0.4368,1.332669 -0.0985,0.323887 -0.22,0.628272 -0.26652,0.967224 -0.12242,0.348163 -0.24382,0.695735 -0.36444,1.044515 -0.11052,0.33574 -0.15119,0.70565 -0.30972,1.02287 -0.0188,0.0461 -0.0342,0.0938 -0.0563,0.13846 -0.11216,0.22736 -0.0411,0.0178 -0.13762,0.26961 -0.058,0.15137 -0.0784,0.29804 -0.15474,0.4418 -0.091,0.34098 -0.21223,0.66902 -0.2783,1.01679 -0.12253,0.37479 -0.31453,0.71885 -0.50346,1.0654 -0.23028,0.51221 -0.46743,1.02123 -0.67803,1.54235 -0.15205,0.45479 -0.35886,0.88766 -0.62627,1.28516 -0.14276,0.27609 -0.36062,0.49744 -0.55904,0.73528 -0.16015,0.19088 -0.23792,0.44912 -0.41589,0.62484 -0.45087,0.44518 0.19497,-0.2592 -0.22593,0.20894 -0.23502,0.13747 -0.36966,0.38356 -0.58921,0.5379 -0.31405,0.27975 -0.59444,0.59747 -0.90719,0.87926 -0.27398,0.33825 -0.59405,0.63106 -0.91496,0.92436 -0.37574,0.40718 -0.84592,0.70147 -1.26831,1.0517 -0.0617,0.0452 -0.12404,0.0895 -0.18507,0.13557 -0.41614,0.31418 0.0591,-0.0182 -0.39079,0.24876 -0.0646,0.0383 -0.25095,0.16456 -0.18588,0.12713 1.06372,-0.61197 4.24488,-2.46513 3.18239,-1.85105 -1.1938,0.68996 -2.38418,1.3858 -3.57627,2.0787 -0.0654,0.0392 -0.13084,0.0784 -0.19625,0.11757 -0.0629,0.0423 -0.1239,0.0875 -0.18863,0.12688 -0.0612,0.0373 -0.25066,0.1388 -0.1887,0.10283 5.63776,-3.27234 3.99773,-2.21734 2.78272,-1.63775 -0.41877,0.20931 -0.84185,0.40991 -1.27041,0.59835 -0.7484,0.28967 -1.53062,0.4851 -2.31239,0.66088 0,0 -3.09725,2.35285 -3.09725,2.35285 v 0 c 0.77627,-0.16186 1.54633,-0.34591 2.30658,-0.5722 0.44159,-0.16269 0.86364,-0.37049 1.28685,-0.57472 0.13451,-0.0678 0.27961,-0.11437 0.41069,-0.18859 1.39846,-0.79181 2.7981,-1.55304 4.14677,-2.41591 -1.06028,0.60948 -4.23173,2.454 -3.18085,1.82845 1.44625,-0.8609 3.0056,-1.55049 4.32222,-2.60631 0.4403,-0.33072 0.84896,-0.69848 1.24809,-1.07753 0.3193,-0.30156 0.61894,-0.62088 0.92429,-0.93599 0.29572,-0.30471 0.60994,-0.59152 0.92674,-0.87396 0.17934,-0.20352 0.39652,-0.3648 0.57248,-0.57114 0.2414,-0.25877 0.38642,-0.59018 0.62806,-0.85061 0.20213,-0.24873 0.39074,-0.50224 0.53634,-0.78969 0.22645,-0.42404 0.40148,-0.86954 0.56807,-1.32028 0.22387,-0.51229 0.46628,-1.0172 0.71409,-1.5181 0.19617,-0.37225 0.38557,-0.75445 0.4727,-1.16914 0.0858,-0.32528 0.19024,-0.64741 0.31179,-0.96088 0.0906,-0.29674 0.23835,-0.56665 0.34128,-0.85888 0.0933,-0.343717 0.19017,-0.686995 0.29922,-1.025919 0.12977,-0.362751 0.26321,-0.728382 0.34706,-1.104402 0.0749,-0.311341 0.20145,-0.606687 0.27479,-0.918824 0.14993,-0.457356 0.31108,-0.912813 0.41272,-1.38407 0.0732,-0.435303 0.16484,-0.86759 0.20441,-1.307975 0.05,-0.436492 0.0361,-0.87429 0.0409,-1.313046 -0.002,-0.419438 -0.006,-0.838866 -0.009,-1.258294 -0.003,-0.510726 0.006,-1.021072 0.006,-1.531724 -7.9e-4,-0.408842 0.006,-0.817562 0.003,-1.226378 -0.004,-0.406958 -0.0126,-0.81403 -0.0399,-1.220208 -0.0311,-0.422124 -0.0958,-0.839882 -0.13603,-1.260866 -0.0107,-0.412729 -0.0422,-0.824593 -0.10166,-1.233366 -0.0539,-0.384352 -0.0941,-0.769226 -0.13416,-1.155142 -0.0532,-0.371988 -0.11374,-0.742426 -0.0903,-1.120074 -0.009,-0.365884 -0.026,-0.732255 -0.0847,-1.094142 -0.0656,-0.393509 -0.14461,-0.784717 -0.20976,-1.178279 -0.0738,-0.328406 -0.148,-0.656865 -0.23213,-0.982766 -0.0754,-0.364704 -0.11517,-0.736938 -0.19995,-1.100246 -0.0622,-0.332912 -0.16401,-0.65269 -0.29493,-0.965184 -0.16293,-0.338074 -0.36414,-0.657058 -0.54315,-0.986838 -0.24553,-0.360174 -0.50007,-0.715266 -0.77114,-1.056645 -0.43119,-0.504351 -0.80808,-1.053711 -1.26061,-1.540314 0,0 -3.39284,2.021536 -3.39284,2.021536 z" />
      <path
         style="fill:#d40000"
         id="path12397"
         sodipodi:type="arc"
         sodipodi:cx="109.15569"
         sodipodi:cy="87.669197"
         sodipodi:rx="6.2396803"
         sodipodi:ry="5.4364738"
         sodipodi:start="0"
         sodipodi:end="6.2384351"
         sodipodi:open="true"
         sodipodi:arc-type="arc"
         d="m 115.39537,87.669197 a 6.2396803,5.4364738 0 0 1 -6.16987,5.436134 6.2396803,5.4364738 0 0 1 -6.30793,-5.314502 6.2396803,5.4364738 0 0 1 6.02874,-5.555044 6.2396803,5.4364738 0 0 1 6.44282,5.19021" />
    </g>
  </g>
</svg>
