<?xml version="1.0" encoding="utf-8"?>
<!-- Svg Vector Icons : http://www.onlinewebfonts.com/icon -->
<!DOCTYPE svg PUBLIC "-//W3C//DTD SVG 1.1//EN" "http://www.w3.org/Graphics/SVG/1.1/DTD/svg11.dtd">
<svg version="1.1" xmlns="http://www.w3.org/2000/svg" xmlns:xlink="http://www.w3.org/1999/xlink" x="0px" y="0px" viewBox="0 0 1000 1000" enable-background="new 0 0 1000 1000" xml:space="preserve">
<metadata> Svg Vector Icons : http://www.onlinewebfonts.com/icon </metadata>
<g><g transform="translate(0.000000,512.000000) scale(0.100000,-0.100000)"><path d="M4941.5,4971.2c-11.5-26.8-19.1-99.5-19.1-162.7v-112.9h-132.1c-166.6,0-526.5-45.9-756.2-97.6C2253.6,4203.5,848.4,2737.1,538.3,945.1c-21.1-120.6-44-292.9-47.9-382.9c-5.7-90-15.3-210.6-21.1-264.2l-9.6-101.5H310.5c-160.8,0-222.1-24.9-208.7-88.1c5.7-30.6,24.9-36.4,149.3-42.1c235.5-7.7,229.7-3.8,229.7-153.1c0-273.8,91.9-758.1,214.4-1133.4c480.5-1468.4,1709.6-2619,3202.9-2994.2c294.8-74.6,750.5-139.7,1010.8-145.5c7.7,0,13.4-78.5,13.4-174.2c0-187.6,19.1-247,78.5-247c53.6,0,74.7,72.7,74.7,258.4v158.9l130.2,11.5c333.1,30.6,528.4,55.5,721.8,97.6c869.2,189.6,1612,593.5,2245.7,1221.4c379.1,373.3,643.3,739,882.6,1219.5c268,539.9,421.2,1095.1,457.5,1665.6l13.4,201l166.6,3.8C9877,60.7,9900,66.4,9900,120c0,55.5-59.3,76.6-218.3,76.6h-143.6l-9.6,63.2c-5.7,32.5-13.4,151.3-19.2,262.3c-5.7,111-24.9,283.3-42.1,382.9c-312.1,1826.4-1702,3289-3513.1,3694.9c-218.2,49.8-582,95.7-746.6,95.7h-132.1v112.9c0,143.6-24.9,212.5-76.6,212.5C4974.1,5021,4953,5001.9,4941.5,4971.2z M4922.4,4239.9v-189.5l-243.1-23c-1238.7-113-2329.9-786.8-2978.9-1839.8c-335-545.6-568.6-1322.9-568.6-1895.3v-95.7H938.4H743.1l11.5,254.6c24.9,547.5,180,1135.3,434.6,1640.7c566.7,1127.6,1589,1933.6,2823.8,2226.5c243.1,59.4,570.5,103.4,771.5,107.2l137.8,1.9V4239.9z M5718.8,4372c1192.7-208.7,2182.5-855.8,2846.8-1858.9c404-610.7,683.5-1495.2,683.5-2165.3V196.6h-187.6h-187.6l-23,283.3c-76.6,917-461.4,1755.6-1104.6,2406.5c-656.7,664.3-1491.4,1056.8-2425.6,1141l-245,23v191.5v191.4l218.2-11.5C5412.5,4414.1,5603.9,4391.2,5718.8,4372z M4922.4,2846.2c0-696.9,7.7-1075.9,19.1-1100.8c11.5-19.1,36.4-36.4,57.4-36.4c21.1,0,45.9,17.2,57.5,36.4c11.5,24.9,19.1,404,19.1,1100.8v1064.4h53.6c124.4,0,564.8-61.3,740.9-103.4c1347.8-325.5,2398.8-1355.4,2739.6-2689.8c65.1-248.9,122.5-645.2,122.5-829v-91.9H7696.5c-675.8,0-1047.2-7.7-1072.1-19.1c-40.2-23-49.8-86.1-15.3-107.2c11.5-5.8,490.1-11.5,1064.5-13.4c798.3,0,1045.3-5.7,1051-23c5.8-13.4,0-113-9.6-222.1c-164.6-1619.6-1321-2929.1-2894.7-3279.5c-218.2-47.9-522.6-88-668.1-88h-76.6v1007c0,656.7-7.7,1018.5-19.1,1043.4c-11.5,19.1-36.4,36.4-57.5,36.4c-21.1,0-45.9-17.2-57.4-36.4c-11.5-24.9-19.1-386.7-19.1-1043.4v-1007h-93.8c-147.4,0-507.3,51.7-719.8,103.4c-670.1,164.6-1261.6,497.8-1751.7,987.9c-616.5,616.5-982.1,1389.9-1074,2276.3c-17.2,174.2-17.2,220.2,1.9,231.6c13.4,7.7,488.2,15.3,1053,13.4c564.8,0,1037.6,5.7,1051,13.4c34.5,21,24.9,84.2-15.3,107.2c-24.9,11.5-396.3,19.1-1075.9,19.1H1260l13.4,216.3c59.4,924.7,436.5,1755.6,1095.1,2414.1c654.7,650.9,1564.1,1047.2,2483,1081.7l70.8,1.9V2846.2z M1139.4-96.3c44-516.9,164.6-963,386.7-1420.5C2125.4-2751.7,3371.7-3594.1,4734.8-3684l187.6-11.5v-193.4v-193.4l-224,13.4c-737.1,40.2-1489.4,300.6-2113.6,725.6C1732.9-2761.3,1131.8-1897.9,873.3-887c-67,262.3-124.4,647.1-124.4,830.9V53l189.5,3.8l187.6,5.7L1139.4-96.3z M9249.1-56.1c0-153.2-44-469-95.7-714.1c-122.5-564.8-398.2-1158.2-763.9-1644.5c-725.6-963-1891.5-1587.1-3088-1654.1l-225.9-13.4v195.3v197.2h91.9c239.3,0,716,86.2,1008.9,181.9C7353.8-3121.2,8276.5-2208,8665.2-1044c97.6,296.7,153.2,549.5,183.8,861.5c26.8,256.5,3.8,237.4,262.3,243.1l137.9,1.9V-56.1z"/></g></g>
</svg>